<svg xmlns="http://www.w3.org/2000/svg" xmlns:xlink="http://www.w3.org/1999/xlink" width="243" zoomAndPan="magnify" viewBox="0 0 182.25 80.249996" height="107" preserveAspectRatio="xMidYMid meet" version="1.0"><defs><g/><clipPath id="3d49f4640c"><path d="M 0.472656 0 L 181.035156 0 L 181.035156 79.507812 L 0.472656 79.507812 Z M 0.472656 0 " clip-rule="nonzero"/></clipPath></defs><g clip-path="url(#3d49f4640c)"><path fill="#ffffff" d="M 0.472656 0 L 181.777344 0 L 181.777344 86.9375 L 0.472656 86.9375 Z M 0.472656 0 " fill-opacity="1" fill-rule="nonzero"/><path fill="#ffffff" d="M 0.472656 0 L 181.035156 0 L 181.035156 79.507812 L 0.472656 79.507812 Z M 0.472656 0 " fill-opacity="1" fill-rule="nonzero"/><path fill="#000000" d="M 0.472656 0 L 181.035156 0 L 181.035156 79.507812 L 0.472656 79.507812 Z M 0.472656 0 " fill-opacity="1" fill-rule="nonzero"/></g><g fill="#545454" fill-opacity="1"><g transform="translate(26.82564, 48.230262)"><g><path d="M 13.0625 0.296875 C 9.40625 0.296875 6.484375 -0.722656 4.296875 -2.765625 C 2.117188 -4.816406 1.03125 -7.582031 1.03125 -11.0625 C 1.03125 -14.550781 2.078125 -17.316406 4.171875 -19.359375 C 6.273438 -21.398438 9.164062 -22.421875 12.84375 -22.421875 C 15.007812 -22.421875 16.898438 -22.035156 18.515625 -21.265625 C 18.929688 -21.066406 19.21875 -20.742188 19.375 -20.296875 C 19.53125 -19.847656 19.515625 -19.40625 19.328125 -18.96875 C 19.171875 -18.5625 18.878906 -18.285156 18.453125 -18.140625 C 18.023438 -18.003906 17.609375 -18.023438 17.203125 -18.203125 C 15.992188 -18.773438 14.671875 -19.0625 13.234375 -19.0625 C 10.753906 -19.0625 8.816406 -18.34375 7.421875 -16.90625 C 6.023438 -15.46875 5.328125 -13.515625 5.328125 -11.046875 C 5.328125 -8.585938 6.054688 -6.640625 7.515625 -5.203125 C 8.984375 -3.773438 10.960938 -3.0625 13.453125 -3.0625 C 14.578125 -3.0625 15.617188 -3.242188 16.578125 -3.609375 C 16.710938 -3.671875 16.78125 -3.78125 16.78125 -3.9375 L 16.78125 -9.75 C 16.78125 -9.9375 16.691406 -10.03125 16.515625 -10.03125 L 12.234375 -10.03125 C 11.796875 -10.03125 11.421875 -10.1875 11.109375 -10.5 C 10.796875 -10.8125 10.640625 -11.191406 10.640625 -11.640625 C 10.640625 -12.097656 10.796875 -12.484375 11.109375 -12.796875 C 11.421875 -13.109375 11.796875 -13.265625 12.234375 -13.265625 L 19.125 -13.265625 C 19.582031 -13.265625 19.976562 -13.09375 20.3125 -12.75 C 20.644531 -12.40625 20.8125 -12.003906 20.8125 -11.546875 L 20.8125 -3.03125 C 20.8125 -2.5 20.671875 -2.007812 20.390625 -1.5625 C 20.109375 -1.125 19.722656 -0.828125 19.234375 -0.671875 C 17.359375 -0.0234375 15.300781 0.296875 13.0625 0.296875 Z M 13.0625 0.296875 "/></g></g></g><g fill="#545454" fill-opacity="1"><g transform="translate(49.72003, 48.230262)"><g><path d="M 6.578125 -18.65625 L 6.578125 -12.09375 C 6.578125 -11.925781 6.664062 -11.84375 6.84375 -11.84375 L 8.359375 -11.84375 C 11.953125 -11.84375 13.75 -13.125 13.75 -15.6875 C 13.75 -17.976562 12.082031 -19.125 8.75 -19.125 C 8.144531 -19.125 7.507812 -19.070312 6.84375 -18.96875 C 6.664062 -18.925781 6.578125 -18.820312 6.578125 -18.65625 Z M 6.578125 -8.359375 L 6.578125 -1.734375 C 6.578125 -1.265625 6.410156 -0.859375 6.078125 -0.515625 C 5.742188 -0.171875 5.34375 0 4.875 0 L 4.125 0 C 3.65625 0 3.25 -0.171875 2.90625 -0.515625 C 2.5625 -0.859375 2.390625 -1.265625 2.390625 -1.734375 L 2.390625 -20.234375 C 2.390625 -20.722656 2.550781 -21.15625 2.875 -21.53125 C 3.195312 -21.914062 3.601562 -22.128906 4.09375 -22.171875 C 5.8125 -22.335938 7.46875 -22.421875 9.0625 -22.421875 C 12.03125 -22.421875 14.25 -21.867188 15.71875 -20.765625 C 17.195312 -19.671875 17.9375 -18.125 17.9375 -16.125 C 17.9375 -14.6875 17.546875 -13.421875 16.765625 -12.328125 C 15.992188 -11.234375 14.953125 -10.46875 13.640625 -10.03125 C 13.617188 -10.03125 13.609375 -10.019531 13.609375 -10 C 13.609375 -9.957031 13.617188 -9.9375 13.640625 -9.9375 C 14.609375 -9.332031 15.4375 -8.140625 16.125 -6.359375 L 17.9375 -1.609375 C 18.070312 -1.222656 18.023438 -0.859375 17.796875 -0.515625 C 17.566406 -0.171875 17.25 0 16.84375 0 L 15.90625 0 C 15.382812 0 14.910156 -0.144531 14.484375 -0.4375 C 14.054688 -0.726562 13.753906 -1.117188 13.578125 -1.609375 L 11.875 -6.265625 C 11.507812 -7.234375 11.09375 -7.867188 10.625 -8.171875 C 10.164062 -8.484375 9.367188 -8.640625 8.234375 -8.640625 L 6.84375 -8.640625 C 6.664062 -8.640625 6.578125 -8.546875 6.578125 -8.359375 Z M 6.578125 -8.359375 "/></g></g></g><g fill="#545454" fill-opacity="1"><g transform="translate(68.889543, 48.230262)"><g><path d="M 9.09375 -10.03125 C 6.539062 -9.195312 5.265625 -7.941406 5.265625 -6.265625 C 5.265625 -5.222656 5.671875 -4.378906 6.484375 -3.734375 C 7.296875 -3.097656 8.363281 -2.78125 9.6875 -2.78125 C 11.019531 -2.78125 12.078125 -3.097656 12.859375 -3.734375 C 13.640625 -4.378906 14.03125 -5.222656 14.03125 -6.265625 C 14.03125 -7.160156 13.707031 -7.898438 13.0625 -8.484375 C 12.414062 -9.066406 11.265625 -9.582031 9.609375 -10.03125 C 9.421875 -10.09375 9.25 -10.09375 9.09375 -10.03125 Z M 9.6875 -19.328125 C 8.519531 -19.328125 7.609375 -19.0625 6.953125 -18.53125 C 6.296875 -18.007812 5.96875 -17.316406 5.96875 -16.453125 C 5.96875 -14.972656 7.160156 -13.890625 9.546875 -13.203125 C 9.765625 -13.171875 9.925781 -13.171875 10.03125 -13.203125 C 12.332031 -13.929688 13.484375 -15.015625 13.484375 -16.453125 C 13.484375 -17.316406 13.148438 -18.007812 12.484375 -18.53125 C 11.816406 -19.0625 10.882812 -19.328125 9.6875 -19.328125 Z M 15.921875 -1.421875 C 14.429688 -0.273438 12.351562 0.296875 9.6875 0.296875 C 7.03125 0.296875 4.953125 -0.273438 3.453125 -1.421875 C 1.960938 -2.578125 1.21875 -4.125 1.21875 -6.0625 C 1.21875 -7.164062 1.578125 -8.1875 2.296875 -9.125 C 3.023438 -10.070312 4.109375 -10.847656 5.546875 -11.453125 C 5.585938 -11.453125 5.609375 -11.472656 5.609375 -11.515625 C 5.609375 -11.535156 5.597656 -11.546875 5.578125 -11.546875 C 4.398438 -12.128906 3.492188 -12.882812 2.859375 -13.8125 C 2.222656 -14.738281 1.90625 -15.757812 1.90625 -16.875 C 1.90625 -18.53125 2.59375 -19.867188 3.96875 -20.890625 C 5.34375 -21.910156 7.25 -22.421875 9.6875 -22.421875 C 12.132812 -22.421875 14.046875 -21.910156 15.421875 -20.890625 C 16.796875 -19.867188 17.484375 -18.53125 17.484375 -16.875 C 17.484375 -14.769531 16.226562 -13.144531 13.71875 -12 C 13.695312 -12 13.6875 -11.976562 13.6875 -11.9375 C 13.6875 -11.914062 13.695312 -11.90625 13.71875 -11.90625 C 16.6875 -10.769531 18.171875 -8.820312 18.171875 -6.0625 C 18.171875 -4.125 17.421875 -2.578125 15.921875 -1.421875 Z M 15.921875 -1.421875 "/></g></g></g><g fill="#545454" fill-opacity="1"><g transform="translate(88.271041, 48.230262)"><g><path d="M 6.640625 -10.484375 L 6.640625 -1.734375 C 6.640625 -1.265625 6.46875 -0.859375 6.125 -0.515625 C 5.78125 -0.171875 5.375 0 4.90625 0 L 4.125 0 C 3.65625 0 3.25 -0.171875 2.90625 -0.515625 C 2.5625 -0.859375 2.390625 -1.265625 2.390625 -1.734375 L 2.390625 -20.390625 C 2.390625 -20.859375 2.5625 -21.257812 2.90625 -21.59375 C 3.25 -21.9375 3.65625 -22.109375 4.125 -22.109375 L 4.90625 -22.109375 C 5.375 -22.109375 5.78125 -21.9375 6.125 -21.59375 C 6.46875 -21.257812 6.640625 -20.859375 6.640625 -20.390625 L 6.640625 -12.546875 C 6.640625 -12.523438 6.648438 -12.515625 6.671875 -12.515625 L 6.71875 -12.546875 L 13.328125 -20.78125 C 14.035156 -21.664062 14.96875 -22.109375 16.125 -22.109375 L 17.625 -22.109375 C 17.96875 -22.109375 18.21875 -21.953125 18.375 -21.640625 C 18.53125 -21.328125 18.492188 -21.039062 18.265625 -20.78125 L 10.71875 -11.71875 C 10.625 -11.582031 10.625 -11.441406 10.71875 -11.296875 L 18.609375 -1.328125 C 18.804688 -1.046875 18.828125 -0.753906 18.671875 -0.453125 C 18.523438 -0.148438 18.28125 0 17.9375 0 L 16.421875 0 C 15.285156 0 14.363281 -0.453125 13.65625 -1.359375 L 6.71875 -10.484375 C 6.707031 -10.503906 6.691406 -10.515625 6.671875 -10.515625 C 6.648438 -10.515625 6.640625 -10.503906 6.640625 -10.484375 Z M 6.640625 -10.484375 "/></g></g></g><g fill="#545454" fill-opacity="1"><g transform="translate(107.894807, 48.230262)"><g><path d="M 15.625 -2.921875 C 15.957031 -2.585938 16.125 -2.1875 16.125 -1.71875 C 16.125 -1.257812 15.957031 -0.859375 15.625 -0.515625 C 15.289062 -0.171875 14.890625 0 14.421875 0 L 4.125 0 C 3.65625 0 3.25 -0.171875 2.90625 -0.515625 C 2.5625 -0.859375 2.390625 -1.265625 2.390625 -1.734375 L 2.390625 -20.390625 C 2.390625 -20.859375 2.5625 -21.257812 2.90625 -21.59375 C 3.25 -21.9375 3.65625 -22.109375 4.125 -22.109375 L 14.421875 -22.109375 C 14.890625 -22.109375 15.289062 -21.9375 15.625 -21.59375 C 15.957031 -21.257812 16.125 -20.859375 16.125 -20.390625 C 16.125 -19.921875 15.957031 -19.519531 15.625 -19.1875 C 15.289062 -18.851562 14.890625 -18.6875 14.421875 -18.6875 L 6.90625 -18.6875 C 6.726562 -18.6875 6.640625 -18.597656 6.640625 -18.421875 L 6.640625 -13.546875 C 6.640625 -13.359375 6.726562 -13.265625 6.90625 -13.265625 L 13.90625 -13.265625 C 14.351562 -13.265625 14.734375 -13.109375 15.046875 -12.796875 C 15.359375 -12.484375 15.515625 -12.097656 15.515625 -11.640625 C 15.515625 -11.191406 15.363281 -10.8125 15.0625 -10.5 C 14.757812 -10.1875 14.375 -10.03125 13.90625 -10.03125 L 6.90625 -10.03125 C 6.726562 -10.03125 6.640625 -9.9375 6.640625 -9.75 L 6.640625 -3.703125 C 6.640625 -3.515625 6.726562 -3.421875 6.90625 -3.421875 L 14.421875 -3.421875 C 14.890625 -3.421875 15.289062 -3.253906 15.625 -2.921875 Z M 15.625 -2.921875 "/></g></g></g><g fill="#545454" fill-opacity="1"><g transform="translate(126.095252, 48.230262)"><g><path d="M 10.875 0 L 9.78125 0 C 9.257812 0 8.785156 -0.148438 8.359375 -0.453125 C 7.929688 -0.753906 7.640625 -1.148438 7.484375 -1.640625 L 0.9375 -20.484375 C 0.800781 -20.890625 0.851562 -21.257812 1.09375 -21.59375 C 1.332031 -21.9375 1.664062 -22.109375 2.09375 -22.109375 L 3.1875 -22.109375 C 3.6875 -22.109375 4.140625 -21.957031 4.546875 -21.65625 C 4.953125 -21.351562 5.234375 -20.960938 5.390625 -20.484375 L 10.328125 -4.1875 C 10.328125 -4.164062 10.335938 -4.15625 10.359375 -4.15625 C 10.378906 -4.15625 10.390625 -4.164062 10.390625 -4.1875 L 15.359375 -20.484375 C 15.523438 -20.960938 15.8125 -21.351562 16.21875 -21.65625 C 16.632812 -21.957031 17.097656 -22.109375 17.609375 -22.109375 L 18.578125 -22.109375 C 18.992188 -22.109375 19.320312 -21.9375 19.5625 -21.59375 C 19.8125 -21.257812 19.863281 -20.890625 19.71875 -20.484375 L 13.171875 -1.640625 C 13.015625 -1.148438 12.722656 -0.753906 12.296875 -0.453125 C 11.878906 -0.148438 11.40625 0 10.875 0 Z M 10.875 0 "/></g></g></g><g fill="#545454" fill-opacity="1"><g transform="translate(146.748663, 48.230262)"><g><path d="M 7.546875 -3.421875 L 7.546875 -1.734375 C 7.546875 -1.265625 7.375 -0.859375 7.03125 -0.515625 C 6.6875 -0.171875 6.28125 0 5.8125 0 L 4.421875 0 C 3.953125 0 3.546875 -0.171875 3.203125 -0.515625 C 2.867188 -0.859375 2.703125 -1.265625 2.703125 -1.734375 L 2.703125 -3.421875 C 2.703125 -3.890625 2.867188 -4.296875 3.203125 -4.640625 C 3.546875 -4.984375 3.953125 -5.15625 4.421875 -5.15625 L 5.8125 -5.15625 C 6.28125 -5.15625 6.6875 -4.984375 7.03125 -4.640625 C 7.375 -4.296875 7.546875 -3.890625 7.546875 -3.421875 Z M 7.546875 -3.421875 "/></g></g></g></svg>